<?xml version="1.0" encoding="UTF-8" standalone="no"?>
<!DOCTYPE svg PUBLIC "-//W3C//DTD SVG 1.1//EN"
 "http://www.w3.org/Graphics/SVG/1.1/DTD/svg11.dtd">
<!-- Generated by graphviz version 10.0.1 (20240210.2158)
 -->
<!-- Title: G Pages: 1 -->
<svg width="1754pt" height="922pt"
 viewBox="0.00 0.00 1753.61 921.50" xmlns="http://www.w3.org/2000/svg" xmlns:xlink="http://www.w3.org/1999/xlink">
<g id="graph0" class="graph" transform="scale(1 1) rotate(0) translate(4 917.5)">
<title>G</title>
<polygon fill="white" stroke="none" points="-4,4 -4,-917.5 1749.61,-917.5 1749.61,4 -4,4"/>
<!-- Cobán -->
<g id="node1" class="node">
<title>Cobán</title>
<ellipse fill="none" stroke="black" cx="805" cy="-895.5" rx="35.6" ry="18"/>
<text text-anchor="middle" x="805" y="-890.08" font-family="Times New Roman,serif" font-size="14.00">Cobán</text>
</g>
<!-- Guatemala -->
<g id="node2" class="node">
<title>Guatemala</title>
<ellipse fill="none" stroke="black" cx="759" cy="-807.75" rx="49.57" ry="18"/>
<text text-anchor="middle" x="759" y="-802.33" font-family="Times New Roman,serif" font-size="14.00">Guatemala</text>
</g>
<!-- Cobán&#45;&gt;Guatemala -->
<g id="edge1" class="edge">
<title>Cobán&#45;&gt;Guatemala</title>
<path fill="none" stroke="black" d="M770.36,-890.61C750.53,-886.4 727.19,-877.66 714.75,-859.5 707.78,-849.33 714.07,-838.92 723.87,-830.2"/>
<polygon fill="black" stroke="black" points="725.78,-833.15 731.52,-824.25 721.48,-827.63 725.78,-833.15"/>
<text text-anchor="middle" x="729.62" y="-846.2" font-family="Times New Roman,serif" font-size="14.00">[200]</text>
</g>
<!-- Cobán&#45;&gt;Guatemala -->
<g id="edge2" class="edge">
<title>Cobán&#45;&gt;Guatemala</title>
<path fill="none" stroke="black" d="M785.13,-880.46C778.43,-874.72 771.56,-867.53 767.25,-859.5 763.65,-852.79 761.54,-844.91 760.31,-837.4"/>
<polygon fill="black" stroke="black" points="763.81,-837.15 759.21,-827.6 756.85,-837.93 763.81,-837.15"/>
<text text-anchor="middle" x="775.88" y="-846.2" font-family="Times New Roman,serif" font-size="14.00">[5]</text>
</g>
<!-- Salamá -->
<g id="node3" class="node">
<title>Salamá</title>
<ellipse fill="none" stroke="black" cx="960" cy="-456.75" rx="37.09" ry="18"/>
<text text-anchor="middle" x="960" y="-451.32" font-family="Times New Roman,serif" font-size="14.00">Salamá</text>
</g>
<!-- Cobán&#45;&gt;Salamá -->
<g id="edge3" class="edge">
<title>Cobán&#45;&gt;Salamá</title>
<path fill="none" stroke="black" d="M840.28,-892.63C896.18,-889.09 1001.94,-879.86 1033,-859.5 1055.3,-844.88 1065,-835.42 1065,-808.75 1065,-808.75 1065,-808.75 1065,-543.5 1065,-508.81 1030.19,-485.64 1000.66,-472.22"/>
<polygon fill="black" stroke="black" points="1002.05,-469.01 991.48,-468.31 999.31,-475.45 1002.05,-469.01"/>
<text text-anchor="middle" x="1079.62" y="-670.7" font-family="Times New Roman,serif" font-size="14.00">[200]</text>
</g>
<!-- Suchitepequez -->
<g id="node4" class="node">
<title>Suchitepequez</title>
<ellipse fill="none" stroke="black" cx="365" cy="-456.75" rx="64.54" ry="18"/>
<text text-anchor="middle" x="365" y="-451.32" font-family="Times New Roman,serif" font-size="14.00">Suchitepequez</text>
</g>
<!-- Cobán&#45;&gt;Suchitepequez -->
<g id="edge4" class="edge">
<title>Cobán&#45;&gt;Suchitepequez</title>
<path fill="none" stroke="black" d="M771.53,-889.13C751.1,-884.35 725.61,-875.53 708,-859.5 602.96,-763.85 672.16,-656.29 552,-580.5 517.87,-558.97 498.24,-582.17 463,-562.5 453.69,-557.3 412.97,-512.17 387.04,-482.87"/>
<polygon fill="black" stroke="black" points="389.76,-480.66 380.51,-475.48 384.51,-485.29 389.76,-480.66"/>
<text text-anchor="middle" x="643.62" y="-670.7" font-family="Times New Roman,serif" font-size="14.00">[320]</text>
</g>
<!-- LaLibertad -->
<g id="node5" class="node">
<title>LaLibertad</title>
<ellipse fill="none" stroke="black" cx="1253" cy="-369" rx="51.06" ry="18"/>
<text text-anchor="middle" x="1253" y="-363.57" font-family="Times New Roman,serif" font-size="14.00">LaLibertad</text>
</g>
<!-- Cobán&#45;&gt;LaLibertad -->
<g id="edge5" class="edge">
<title>Cobán&#45;&gt;LaLibertad</title>
<path fill="none" stroke="black" d="M840.95,-894.86C943.66,-894.94 1231,-888.06 1231,-808.75 1231,-808.75 1231,-808.75 1231,-455.75 1231,-435.89 1236.6,-414.24 1242.15,-397.66"/>
<polygon fill="black" stroke="black" points="1245.36,-399.1 1245.41,-388.5 1238.76,-396.75 1245.36,-399.1"/>
<text text-anchor="middle" x="1245.62" y="-626.83" font-family="Times New Roman,serif" font-size="14.00">[280]</text>
</g>
<!-- Sanarate -->
<g id="node6" class="node">
<title>Sanarate</title>
<ellipse fill="none" stroke="black" cx="460" cy="-720" rx="42.08" ry="18"/>
<text text-anchor="middle" x="460" y="-714.58" font-family="Times New Roman,serif" font-size="14.00">Sanarate</text>
</g>
<!-- Cobán&#45;&gt;Sanarate -->
<g id="edge6" class="edge">
<title>Cobán&#45;&gt;Sanarate</title>
<path fill="none" stroke="black" d="M770.73,-889.88C740.6,-884.98 696.04,-875.65 660,-859.5 591.96,-829.01 522.65,-774.71 486.18,-743.94"/>
<polygon fill="black" stroke="black" points="488.67,-741.46 478.79,-737.63 484.12,-746.78 488.67,-741.46"/>
<text text-anchor="middle" x="609.62" y="-802.33" font-family="Times New Roman,serif" font-size="14.00">[170]</text>
</g>
<!-- SanLuisJilotepeque -->
<g id="node7" class="node">
<title>SanLuisJilotepeque</title>
<ellipse fill="none" stroke="black" cx="909" cy="-807.75" rx="82" ry="18"/>
<text text-anchor="middle" x="909" y="-802.33" font-family="Times New Roman,serif" font-size="14.00">SanLuisJilotepeque</text>
</g>
<!-- Cobán&#45;&gt;SanLuisJilotepeque -->
<g id="edge7" class="edge">
<title>Cobán&#45;&gt;SanLuisJilotepeque</title>
<path fill="none" stroke="black" d="M836.66,-887.1C853.41,-881.81 873.28,-873.14 887,-859.5 893.27,-853.26 897.88,-844.94 901.21,-836.85"/>
<polygon fill="black" stroke="black" points="904.45,-838.18 904.48,-827.59 897.85,-835.85 904.45,-838.18"/>
<text text-anchor="middle" x="912.62" y="-846.2" font-family="Times New Roman,serif" font-size="14.00">[200]</text>
</g>
<!-- Guatemala&#45;&gt;Cobán -->
<g id="edge8" class="edge">
<title>Guatemala&#45;&gt;Cobán</title>
<path fill="none" stroke="black" d="M771.4,-825.42C775.35,-831.09 779.58,-837.56 783,-843.75 787.11,-851.18 791,-859.52 794.34,-867.27"/>
<polygon fill="black" stroke="black" points="791,-868.37 798.07,-876.26 797.47,-865.68 791,-868.37"/>
<text text-anchor="middle" x="805.62" y="-846.2" font-family="Times New Roman,serif" font-size="14.00">[200]</text>
</g>
<!-- Guatemala&#45;&gt;Sanarate -->
<g id="edge12" class="edge">
<title>Guatemala&#45;&gt;Sanarate</title>
<path fill="none" stroke="black" d="M725.7,-794C696.32,-783.04 652.2,-767.26 613,-756 578.51,-746.09 539.03,-737.12 508.8,-730.74"/>
<polygon fill="black" stroke="black" points="509.69,-727.35 499.19,-728.73 508.26,-734.2 509.69,-727.35"/>
<text text-anchor="middle" x="676.62" y="-758.45" font-family="Times New Roman,serif" font-size="14.00">[170]</text>
</g>
<!-- Esquipulas -->
<g id="node8" class="node">
<title>Esquipulas</title>
<ellipse fill="none" stroke="black" cx="819" cy="-720" rx="51.06" ry="18"/>
<text text-anchor="middle" x="819" y="-714.58" font-family="Times New Roman,serif" font-size="14.00">Esquipulas</text>
</g>
<!-- Guatemala&#45;&gt;Esquipulas -->
<g id="edge9" class="edge">
<title>Guatemala&#45;&gt;Esquipulas</title>
<path fill="none" stroke="black" d="M774.27,-790.15C779.19,-784.48 784.53,-778 789,-771.75 794.38,-764.23 799.71,-755.69 804.34,-747.79"/>
<polygon fill="black" stroke="black" points="807.31,-749.65 809.23,-739.23 801.23,-746.18 807.31,-749.65"/>
<text text-anchor="middle" x="813.62" y="-758.45" font-family="Times New Roman,serif" font-size="14.00">[280]</text>
</g>
<!-- Cubulco -->
<g id="node9" class="node">
<title>Cubulco</title>
<ellipse fill="none" stroke="black" cx="1005" cy="-105.75" rx="42.58" ry="18"/>
<text text-anchor="middle" x="1005" y="-100.33" font-family="Times New Roman,serif" font-size="14.00">Cubulco</text>
</g>
<!-- Guatemala&#45;&gt;Cubulco -->
<g id="edge10" class="edge">
<title>Guatemala&#45;&gt;Cubulco</title>
<path fill="none" stroke="black" d="M795.59,-795.2C802.96,-793.16 810.69,-791.22 818,-789.75 883.14,-776.63 1109,-787.45 1109,-721 1109,-721 1109,-721 1109,-499.62 1109,-440.78 1136,-428.85 1136,-370 1136,-370 1136,-370 1136,-192.5 1136,-151.68 1090.92,-129.24 1053.65,-117.67"/>
<polygon fill="black" stroke="black" points="1054.92,-114.39 1044.34,-114.97 1052.98,-121.12 1054.92,-114.39"/>
<text text-anchor="middle" x="1135.62" y="-451.32" font-family="Times New Roman,serif" font-size="14.00">[220]</text>
</g>
<!-- Salama -->
<g id="node10" class="node">
<title>Salama</title>
<ellipse fill="none" stroke="black" cx="942" cy="-720" rx="37.09" ry="18"/>
<text text-anchor="middle" x="942" y="-714.58" font-family="Times New Roman,serif" font-size="14.00">Salama</text>
</g>
<!-- Guatemala&#45;&gt;Salama -->
<g id="edge11" class="edge">
<title>Guatemala&#45;&gt;Salama</title>
<path fill="none" stroke="black" d="M797.14,-795.93C823.56,-788.19 856.19,-778.06 869,-771.75 885.04,-763.85 901.52,-752.7 914.75,-742.86"/>
<polygon fill="black" stroke="black" points="916.72,-745.76 922.55,-736.92 912.48,-740.2 916.72,-745.76"/>
<text text-anchor="middle" x="909.62" y="-758.45" font-family="Times New Roman,serif" font-size="14.00">[220]</text>
</g>
<!-- Salamá&#45;&gt;Cobán -->
<g id="edge32" class="edge">
<title>Salamá&#45;&gt;Cobán</title>
<path fill="none" stroke="black" d="M964.6,-474.85C981.5,-539.18 1037.26,-766.05 1000,-825.75 969.25,-875.02 899.48,-889.47 852.3,-893.44"/>
<polygon fill="black" stroke="black" points="852.07,-889.95 842.33,-894.13 852.55,-896.93 852.07,-889.95"/>
<text text-anchor="middle" x="1022.62" y="-670.7" font-family="Times New Roman,serif" font-size="14.00">[200]</text>
</g>
<!-- Salamá&#45;&gt;LaLibertad -->
<g id="edge33" class="edge">
<title>Salamá&#45;&gt;LaLibertad</title>
<path fill="none" stroke="black" d="M991.36,-446.57C1042.22,-431.69 1143.12,-402.16 1203.67,-384.44"/>
<polygon fill="black" stroke="black" points="1204.42,-387.86 1213.04,-381.7 1202.46,-381.15 1204.42,-387.86"/>
<text text-anchor="middle" x="1147.62" y="-407.45" font-family="Times New Roman,serif" font-size="14.00">[300]</text>
</g>
<!-- Salamá&#45;&gt;Cubulco -->
<g id="edge35" class="edge">
<title>Salamá&#45;&gt;Cubulco</title>
<path fill="none" stroke="black" d="M962.23,-438.44C969.46,-382.39 992.28,-205.42 1001.29,-135.54"/>
<polygon fill="black" stroke="black" points="1004.75,-136.03 1002.56,-125.66 997.81,-135.13 1004.75,-136.03"/>
<text text-anchor="middle" x="999.62" y="-275.82" font-family="Times New Roman,serif" font-size="14.00">[200]</text>
</g>
<!-- Huehuetenango -->
<g id="node22" class="node">
<title>Huehuetenango</title>
<ellipse fill="none" stroke="black" cx="886" cy="-369" rx="67.53" ry="18"/>
<text text-anchor="middle" x="886" y="-363.57" font-family="Times New Roman,serif" font-size="14.00">Huehuetenango</text>
</g>
<!-- Salamá&#45;&gt;Huehuetenango -->
<g id="edge31" class="edge">
<title>Salamá&#45;&gt;Huehuetenango</title>
<path fill="none" stroke="black" d="M926.91,-448.41C911.99,-443.28 895.72,-434.75 886.75,-420.75 882.58,-414.25 881.18,-406.25 881.14,-398.54"/>
<polygon fill="black" stroke="black" points="884.61,-399.03 881.83,-388.8 877.63,-398.53 884.61,-399.03"/>
<text text-anchor="middle" x="901.62" y="-407.45" font-family="Times New Roman,serif" font-size="14.00">[250]</text>
</g>
<!-- SanMarcos -->
<g id="node23" class="node">
<title>SanMarcos</title>
<ellipse fill="none" stroke="black" cx="537" cy="-369" rx="53.06" ry="18"/>
<text text-anchor="middle" x="537" y="-363.57" font-family="Times New Roman,serif" font-size="14.00">SanMarcos</text>
</g>
<!-- Salamá&#45;&gt;SanMarcos -->
<g id="edge34" class="edge">
<title>Salamá&#45;&gt;SanMarcos</title>
<path fill="none" stroke="black" d="M928.55,-446.77C906.11,-440.14 875.33,-430.6 848.75,-420.75 832.09,-414.58 829.15,-409.67 812,-405 741.18,-385.73 657.16,-376.99 600.78,-373.09"/>
<polygon fill="black" stroke="black" points="601.26,-369.61 591.05,-372.44 600.8,-376.59 601.26,-369.61"/>
<text text-anchor="middle" x="863.62" y="-407.45" font-family="Times New Roman,serif" font-size="14.00">[250]</text>
</g>
<!-- SanJuanComalapa -->
<g id="node24" class="node">
<title>SanJuanComalapa</title>
<ellipse fill="none" stroke="black" cx="551" cy="-544.5" rx="78.51" ry="18"/>
<text text-anchor="middle" x="551" y="-539.08" font-family="Times New Roman,serif" font-size="14.00">SanJuanComalapa</text>
</g>
<!-- Salamá&#45;&gt;SanJuanComalapa -->
<g id="edge36" class="edge">
<title>Salamá&#45;&gt;SanJuanComalapa</title>
<path fill="none" stroke="black" d="M922.6,-457.79C841.08,-458.43 650.18,-463.16 593.75,-492.75 583.15,-498.31 574.11,-507.72 567.11,-516.93"/>
<polygon fill="black" stroke="black" points="564.3,-514.85 561.45,-525.06 570.04,-518.86 564.3,-514.85"/>
<text text-anchor="middle" x="608.62" y="-495.2" font-family="Times New Roman,serif" font-size="14.00">[200]</text>
</g>
<!-- Suchitepequez&#45;&gt;Cobán -->
<g id="edge42" class="edge">
<title>Suchitepequez&#45;&gt;Cobán</title>
<path fill="none" stroke="black" d="M320.82,-470.19C243.08,-495.1 90,-558.89 90,-675.12 90,-808.75 90,-808.75 90,-808.75 90,-876.21 598.3,-890.87 757.75,-893.81"/>
<polygon fill="black" stroke="black" points="757.48,-897.31 767.54,-893.98 757.6,-890.31 757.48,-897.31"/>
<text text-anchor="middle" x="104.62" y="-670.7" font-family="Times New Roman,serif" font-size="14.00">[320]</text>
</g>
<!-- Chimaltenango -->
<g id="node20" class="node">
<title>Chimaltenango</title>
<ellipse fill="none" stroke="black" cx="350" cy="-544.5" rx="65.53" ry="18"/>
<text text-anchor="middle" x="350" y="-539.08" font-family="Times New Roman,serif" font-size="14.00">Chimaltenango</text>
</g>
<!-- Suchitepequez&#45;&gt;Chimaltenango -->
<g id="edge41" class="edge">
<title>Suchitepequez&#45;&gt;Chimaltenango</title>
<path fill="none" stroke="black" d="M362.44,-475.16C360.95,-484.97 358.98,-497.44 357,-508.5 356.63,-510.56 356.24,-512.69 355.83,-514.83"/>
<polygon fill="black" stroke="black" points="352.41,-514.11 353.92,-524.59 359.28,-515.45 352.41,-514.11"/>
<text text-anchor="middle" x="374.62" y="-495.2" font-family="Times New Roman,serif" font-size="14.00">[200]</text>
</g>
<!-- LaLibertad&#45;&gt;Cobán -->
<g id="edge74" class="edge">
<title>LaLibertad&#45;&gt;Cobán</title>
<path fill="none" stroke="black" d="M1267.08,-386.51C1279.62,-402.94 1296,-429.44 1296,-455.75 1296,-808.75 1296,-808.75 1296,-808.75 1296,-855.45 1248.67,-845.89 1204,-859.5 1139.32,-879.21 942.65,-889.17 851.85,-892.82"/>
<polygon fill="black" stroke="black" points="851.91,-889.32 842.06,-893.21 852.19,-896.31 851.91,-889.32"/>
<text text-anchor="middle" x="1310.62" y="-626.83" font-family="Times New Roman,serif" font-size="14.00">[280]</text>
</g>
<!-- LaLibertad&#45;&gt;Salamá -->
<g id="edge73" class="edge">
<title>LaLibertad&#45;&gt;Salamá</title>
<path fill="none" stroke="black" d="M1203.23,-373.52C1160.86,-377.67 1098.92,-386.52 1047.75,-405 1041.77,-407.16 1014.55,-423.07 991.99,-436.51"/>
<polygon fill="black" stroke="black" points="990.45,-433.35 983.66,-441.49 994.04,-439.36 990.45,-433.35"/>
<text text-anchor="middle" x="1062.62" y="-407.45" font-family="Times New Roman,serif" font-size="14.00">[300]</text>
</g>
<!-- Sanarate&#45;&gt;Cobán -->
<g id="edge26" class="edge">
<title>Sanarate&#45;&gt;Cobán</title>
<path fill="none" stroke="black" d="M464.25,-738.16C470.88,-761.41 485.92,-802.63 513.75,-825.75 550.83,-856.55 687.2,-878.82 759.42,-888.75"/>
<polygon fill="black" stroke="black" points="758.56,-892.16 768.93,-890.03 759.49,-885.22 758.56,-892.16"/>
<text text-anchor="middle" x="528.62" y="-802.33" font-family="Times New Roman,serif" font-size="14.00">[170]</text>
</g>
<!-- Sanarate&#45;&gt;Guatemala -->
<g id="edge29" class="edge">
<title>Sanarate&#45;&gt;Guatemala</title>
<path fill="none" stroke="black" d="M502.11,-720.8C550.57,-722.01 631.61,-728.51 695,-756 709.58,-762.32 723.65,-772.83 734.88,-782.65"/>
<polygon fill="black" stroke="black" points="732.36,-785.1 742.1,-789.27 737.09,-779.93 732.36,-785.1"/>
<text text-anchor="middle" x="734.62" y="-758.45" font-family="Times New Roman,serif" font-size="14.00">[170]</text>
</g>
<!-- Sanarate&#45;&gt;Sanarate -->
<g id="edge28" class="edge">
<title>Sanarate&#45;&gt;Sanarate</title>
<path fill="none" stroke="black" d="M498.14,-728.22C510.38,-728.14 520.08,-725.4 520.08,-720 520.08,-716.46 515.9,-714.06 509.57,-712.8"/>
<polygon fill="black" stroke="black" points="509.92,-709.32 499.64,-711.91 509.29,-716.29 509.92,-709.32"/>
<text text-anchor="middle" x="534.71" y="-714.58" font-family="Times New Roman,serif" font-size="14.00">[170]</text>
</g>
<!-- SanPedroPinula -->
<g id="node15" class="node">
<title>SanPedroPinula</title>
<ellipse fill="none" stroke="black" cx="94" cy="-105.75" rx="69.53" ry="18"/>
<text text-anchor="middle" x="94" y="-100.33" font-family="Times New Roman,serif" font-size="14.00">SanPedroPinula</text>
</g>
<!-- Sanarate&#45;&gt;SanPedroPinula -->
<g id="edge27" class="edge">
<title>Sanarate&#45;&gt;SanPedroPinula</title>
<path fill="none" stroke="black" d="M417.91,-717.85C322.28,-714.87 94.82,-705.57 68,-684 49.57,-669.18 52,-656.9 52,-633.25 52,-633.25 52,-633.25 52,-192.5 52,-170.95 62.83,-149.17 73.5,-132.95"/>
<polygon fill="black" stroke="black" points="76.29,-135.07 79.15,-124.87 70.55,-131.06 76.29,-135.07"/>
<text text-anchor="middle" x="66.62" y="-407.45" font-family="Times New Roman,serif" font-size="14.00">[150]</text>
</g>
<!-- Morales -->
<g id="node16" class="node">
<title>Morales</title>
<ellipse fill="none" stroke="black" cx="615" cy="-105.75" rx="40.58" ry="18"/>
<text text-anchor="middle" x="615" y="-100.33" font-family="Times New Roman,serif" font-size="14.00">Morales</text>
</g>
<!-- Sanarate&#45;&gt;Morales -->
<g id="edge23" class="edge">
<title>Sanarate&#45;&gt;Morales</title>
<path fill="none" stroke="black" d="M502.47,-719.31C536.94,-717.45 585.06,-709.83 618,-684 665.39,-646.83 652.01,-616.83 678,-562.5 689.41,-538.64 694.86,-533.66 703,-508.5 712.66,-478.67 730,-401.36 730,-370 730,-370 730,-370 730,-192.5 730,-155.8 691.9,-132.94 659.56,-120.15"/>
<polygon fill="black" stroke="black" points="660.89,-116.91 650.3,-116.72 658.46,-123.47 660.89,-116.91"/>
<text text-anchor="middle" x="741.62" y="-407.45" font-family="Times New Roman,serif" font-size="14.00">[280]</text>
</g>
<!-- Petén -->
<g id="node18" class="node">
<title>Petén</title>
<ellipse fill="none" stroke="black" cx="415" cy="-632.25" rx="31.1" ry="18"/>
<text text-anchor="middle" x="415" y="-626.83" font-family="Times New Roman,serif" font-size="14.00">Petén</text>
</g>
<!-- Sanarate&#45;&gt;Petén -->
<g id="edge21" class="edge">
<title>Sanarate&#45;&gt;Petén</title>
<path fill="none" stroke="black" d="M423.77,-710.63C409.71,-705.42 395.02,-697.11 386.75,-684 381.16,-675.14 384.76,-665.11 391.02,-656.32"/>
<polygon fill="black" stroke="black" points="393.51,-658.79 397.25,-648.87 388.15,-654.3 393.51,-658.79"/>
<text text-anchor="middle" x="401.62" y="-670.7" font-family="Times New Roman,serif" font-size="14.00">[300]</text>
</g>
<!-- Jocotán -->
<g id="node19" class="node">
<title>Jocotán</title>
<ellipse fill="none" stroke="black" cx="221" cy="-281.25" rx="39.59" ry="18"/>
<text text-anchor="middle" x="221" y="-275.82" font-family="Times New Roman,serif" font-size="14.00">Jocotán</text>
</g>
<!-- Sanarate&#45;&gt;Jocotán -->
<g id="edge22" class="edge">
<title>Sanarate&#45;&gt;Jocotán</title>
<path fill="none" stroke="black" d="M420.14,-713.75C354.42,-704.27 227.53,-682.27 197,-650.25 148.39,-599.28 142,-572.06 142,-501.62 142,-501.62 142,-501.62 142,-368 142,-339.74 165.5,-316.8 186.86,-301.78"/>
<polygon fill="black" stroke="black" points="188.77,-304.72 195.17,-296.28 184.9,-298.88 188.77,-304.72"/>
<text text-anchor="middle" x="157.62" y="-495.2" font-family="Times New Roman,serif" font-size="14.00">[220]</text>
</g>
<!-- Sanarate&#45;&gt;Chimaltenango -->
<g id="edge24" class="edge">
<title>Sanarate&#45;&gt;Chimaltenango</title>
<path fill="none" stroke="black" d="M464.77,-701.69C466.09,-696.09 467.34,-689.82 468,-684 471.54,-652.66 473.16,-640.03 455,-614.25 450.26,-607.52 414.5,-584.76 386.01,-567.25"/>
<polygon fill="black" stroke="black" points="387.95,-564.34 377.59,-562.11 384.3,-570.31 387.95,-564.34"/>
<text text-anchor="middle" x="484.62" y="-626.83" font-family="Times New Roman,serif" font-size="14.00">[170]</text>
</g>
<!-- SantaCruzVerapaz -->
<g id="node21" class="node">
<title>SantaCruzVerapaz</title>
<ellipse fill="none" stroke="black" cx="286" cy="-632.25" rx="79.51" ry="18"/>
<text text-anchor="middle" x="286" y="-626.83" font-family="Times New Roman,serif" font-size="14.00">SantaCruzVerapaz</text>
</g>
<!-- Sanarate&#45;&gt;SantaCruzVerapaz -->
<g id="edge25" class="edge">
<title>Sanarate&#45;&gt;SantaCruzVerapaz</title>
<path fill="none" stroke="black" d="M418.33,-716.72C371.44,-713.17 299.58,-704.48 282.75,-684 277.7,-677.86 276.61,-669.76 277.31,-661.84"/>
<polygon fill="black" stroke="black" points="280.73,-662.57 279.1,-652.1 273.85,-661.31 280.73,-662.57"/>
<text text-anchor="middle" x="297.62" y="-670.7" font-family="Times New Roman,serif" font-size="14.00">[200]</text>
</g>
<!-- SanLuisJilotepeque&#45;&gt;Cobán -->
<g id="edge80" class="edge">
<title>SanLuisJilotepeque&#45;&gt;Cobán</title>
<path fill="none" stroke="black" d="M880.56,-824.95C871.66,-830.48 862.02,-837 853.75,-843.75 844.1,-851.63 834.4,-861.29 826.22,-870.06"/>
<polygon fill="black" stroke="black" points="823.77,-867.56 819.63,-877.31 828.95,-872.27 823.77,-867.56"/>
<text text-anchor="middle" x="868.62" y="-846.2" font-family="Times New Roman,serif" font-size="14.00">[200]</text>
</g>
<!-- Esquipulas&#45;&gt;Guatemala -->
<g id="edge72" class="edge">
<title>Esquipulas&#45;&gt;Guatemala</title>
<path fill="none" stroke="black" d="M829.7,-738.03C834.74,-748.41 838.4,-761.59 832,-771.75 826.56,-780.39 818.33,-786.95 809.33,-791.91"/>
<polygon fill="black" stroke="black" points="807.83,-788.74 800.31,-796.2 810.84,-795.06 807.83,-788.74"/>
<text text-anchor="middle" x="850.62" y="-758.45" font-family="Times New Roman,serif" font-size="14.00">[280]</text>
</g>
<!-- Cubulco&#45;&gt;Guatemala -->
<g id="edge45" class="edge">
<title>Cubulco&#45;&gt;Guatemala</title>
<path fill="none" stroke="black" d="M1046.78,-110C1096.82,-116.43 1174,-135.58 1174,-192.5 1174,-721 1174,-721 1174,-721 1174,-801.57 897.31,-775.54 818,-789.75 814.16,-790.44 810.21,-791.28 806.26,-792.21"/>
<polygon fill="black" stroke="black" points="805.51,-788.79 796.7,-794.66 807.25,-795.57 805.51,-788.79"/>
<text text-anchor="middle" x="1188.62" y="-451.32" font-family="Times New Roman,serif" font-size="14.00">[220]</text>
</g>
<!-- Cubulco&#45;&gt;Salamá -->
<g id="edge44" class="edge">
<title>Cubulco&#45;&gt;Salamá</title>
<path fill="none" stroke="black" d="M1010.3,-124.04C1011.79,-129.63 1013.21,-135.91 1014,-141.75 1024.21,-217.46 1019.89,-272.4 1016,-299.25 1007.92,-354.99 1002.12,-368.95 980,-420.75 978.8,-423.55 977.44,-426.41 975.99,-429.23"/>
<polygon fill="black" stroke="black" points="973.06,-427.29 971.31,-437.74 979.2,-430.66 973.06,-427.29"/>
<text text-anchor="middle" x="1034.62" y="-275.82" font-family="Times New Roman,serif" font-size="14.00">[200]</text>
</g>
<!-- Chiquimula -->
<g id="node13" class="node">
<title>Chiquimula</title>
<ellipse fill="none" stroke="black" cx="504" cy="-193.5" rx="52.56" ry="18"/>
<text text-anchor="middle" x="504" y="-188.07" font-family="Times New Roman,serif" font-size="14.00">Chiquimula</text>
</g>
<!-- Cubulco&#45;&gt;Chiquimula -->
<g id="edge46" class="edge">
<title>Cubulco&#45;&gt;Chiquimula</title>
<path fill="none" stroke="black" d="M965.9,-113.44C877.96,-128.49 664.3,-165.06 561.33,-182.69"/>
<polygon fill="black" stroke="black" points="560.99,-179.19 551.73,-184.33 562.17,-186.09 560.99,-179.19"/>
<text text-anchor="middle" x="814.62" y="-144.2" font-family="Times New Roman,serif" font-size="14.00">[200]</text>
</g>
<!-- AltaVerapaz -->
<g id="node25" class="node">
<title>AltaVerapaz</title>
<ellipse fill="none" stroke="black" cx="1005" cy="-18" rx="56.05" ry="18"/>
<text text-anchor="middle" x="1005" y="-12.57" font-family="Times New Roman,serif" font-size="14.00">AltaVerapaz</text>
</g>
<!-- Cubulco&#45;&gt;AltaVerapaz -->
<g id="edge43" class="edge">
<title>Cubulco&#45;&gt;AltaVerapaz</title>
<path fill="none" stroke="black" d="M989.81,-88.82C982.39,-79.07 975.82,-66.17 979.75,-54 980.71,-51.03 982.03,-48.1 983.56,-45.27"/>
<polygon fill="black" stroke="black" points="986.49,-47.18 988.98,-36.88 980.61,-43.38 986.49,-47.18"/>
<text text-anchor="middle" x="994.62" y="-56.45" font-family="Times New Roman,serif" font-size="14.00">[230]</text>
</g>
<!-- Salama&#45;&gt;Guatemala -->
<g id="edge79" class="edge">
<title>Salama&#45;&gt;Guatemala</title>
<path fill="none" stroke="black" d="M941.8,-738.03C940.72,-749.23 937.38,-763.32 928,-771.75 891.15,-804.86 866.33,-778.87 818,-789.75 814.41,-790.56 810.72,-791.46 807.02,-792.41"/>
<polygon fill="black" stroke="black" points="806.18,-789.01 797.43,-794.98 807.99,-795.77 806.18,-789.01"/>
<text text-anchor="middle" x="952.62" y="-758.45" font-family="Times New Roman,serif" font-size="14.00">[220]</text>
</g>
<!-- Jalapa -->
<g id="node11" class="node">
<title>Jalapa</title>
<ellipse fill="none" stroke="black" cx="1371" cy="-895.5" rx="33.1" ry="18"/>
<text text-anchor="middle" x="1371" y="-890.08" font-family="Times New Roman,serif" font-size="14.00">Jalapa</text>
</g>
<!-- Escuintla -->
<g id="node12" class="node">
<title>Escuintla</title>
<ellipse fill="none" stroke="black" cx="1384" cy="-807.75" rx="44.08" ry="18"/>
<text text-anchor="middle" x="1384" y="-802.33" font-family="Times New Roman,serif" font-size="14.00">Escuintla</text>
</g>
<!-- Jalapa&#45;&gt;Escuintla -->
<g id="edge13" class="edge">
<title>Jalapa&#45;&gt;Escuintla</title>
<path fill="none" stroke="black" d="M1357.28,-879.02C1350.12,-869 1343.8,-855.65 1348.75,-843.75 1350.45,-839.66 1352.89,-835.8 1355.71,-832.24"/>
<polygon fill="black" stroke="black" points="1358.02,-834.9 1362.23,-825.18 1352.88,-830.15 1358.02,-834.9"/>
<text text-anchor="middle" x="1363.62" y="-846.2" font-family="Times New Roman,serif" font-size="14.00">[150]</text>
</g>
<!-- Escuintla&#45;&gt;Jalapa -->
<g id="edge14" class="edge">
<title>Escuintla&#45;&gt;Jalapa</title>
<path fill="none" stroke="black" d="M1382.29,-826.18C1381.23,-835.99 1379.75,-848.46 1378,-859.5 1377.65,-861.7 1377.26,-863.98 1376.85,-866.26"/>
<polygon fill="black" stroke="black" points="1373.43,-865.49 1374.98,-875.97 1380.31,-866.82 1373.43,-865.49"/>
<text text-anchor="middle" x="1394.62" y="-846.2" font-family="Times New Roman,serif" font-size="14.00">[150]</text>
</g>
<!-- Chiquimula&#45;&gt;Cubulco -->
<g id="edge19" class="edge">
<title>Chiquimula&#45;&gt;Cubulco</title>
<path fill="none" stroke="black" d="M528.97,-177.24C538.72,-171.2 549.94,-164.12 560,-157.5 570.27,-150.74 571.17,-145.9 582.75,-141.75 649.04,-117.99 852.37,-110.19 950.67,-107.77"/>
<polygon fill="black" stroke="black" points="950.69,-111.27 960.61,-107.54 950.53,-104.27 950.69,-111.27"/>
<text text-anchor="middle" x="597.62" y="-144.2" font-family="Times New Roman,serif" font-size="14.00">[200]</text>
</g>
<!-- Quetzaltenango -->
<g id="node14" class="node">
<title>Quetzaltenango</title>
<ellipse fill="none" stroke="black" cx="426" cy="-105.75" rx="67.53" ry="18"/>
<text text-anchor="middle" x="426" y="-100.33" font-family="Times New Roman,serif" font-size="14.00">Quetzaltenango</text>
</g>
<!-- Chiquimula&#45;&gt;Quetzaltenango -->
<g id="edge15" class="edge">
<title>Chiquimula&#45;&gt;Quetzaltenango</title>
<path fill="none" stroke="black" d="M463.99,-181.49C456.67,-179.49 449.11,-177.43 442,-175.5 412.14,-167.41 393.59,-182.04 374.75,-157.5 366.87,-147.23 373.71,-136.98 384.66,-128.41"/>
<polygon fill="black" stroke="black" points="386.61,-131.32 392.88,-122.78 382.65,-125.54 386.61,-131.32"/>
<text text-anchor="middle" x="389.62" y="-144.2" font-family="Times New Roman,serif" font-size="14.00">[350]</text>
</g>
<!-- Chiquimula&#45;&gt;SanPedroPinula -->
<g id="edge16" class="edge">
<title>Chiquimula&#45;&gt;SanPedroPinula</title>
<path fill="none" stroke="black" d="M465.56,-180.78C457.81,-178.75 449.69,-176.86 442,-175.5 347.04,-158.68 319.75,-179.05 225.75,-157.5 195.02,-150.45 161.91,-137.68 136.57,-126.71"/>
<polygon fill="black" stroke="black" points="138.16,-123.58 127.6,-122.75 135.33,-129.99 138.16,-123.58"/>
<text text-anchor="middle" x="240.62" y="-144.2" font-family="Times New Roman,serif" font-size="14.00">[120]</text>
</g>
<!-- Chiquimula&#45;&gt;Morales -->
<g id="edge17" class="edge">
<title>Chiquimula&#45;&gt;Morales</title>
<path fill="none" stroke="black" d="M509.53,-175.52C513.82,-164.63 520.74,-150.88 530.75,-141.75 541.64,-131.81 555.76,-124.47 569.31,-119.15"/>
<polygon fill="black" stroke="black" points="570.33,-122.5 578.56,-115.83 567.96,-115.92 570.33,-122.5"/>
<text text-anchor="middle" x="545.62" y="-144.2" font-family="Times New Roman,serif" font-size="14.00">[200]</text>
</g>
<!-- SanPedroCarchá -->
<g id="node17" class="node">
<title>SanPedroCarchá</title>
<ellipse fill="none" stroke="black" cx="515" cy="-281.25" rx="73.52" ry="18"/>
<text text-anchor="middle" x="515" y="-275.82" font-family="Times New Roman,serif" font-size="14.00">SanPedroCarchá</text>
</g>
<!-- Chiquimula&#45;&gt;SanPedroCarchá -->
<g id="edge18" class="edge">
<title>Chiquimula&#45;&gt;SanPedroCarchá</title>
<path fill="none" stroke="black" d="M501.35,-211.55C500.28,-221.46 499.72,-234.15 501.75,-245.25 502.18,-247.6 502.76,-249.99 503.43,-252.37"/>
<polygon fill="black" stroke="black" points="500.09,-253.39 506.63,-261.73 506.71,-251.13 500.09,-253.39"/>
<text text-anchor="middle" x="516.62" y="-231.95" font-family="Times New Roman,serif" font-size="14.00">[200]</text>
</g>
<!-- Quetzaltenango&#45;&gt;Chiquimula -->
<g id="edge20" class="edge">
<title>Quetzaltenango&#45;&gt;Chiquimula</title>
<path fill="none" stroke="black" d="M421.87,-124.09C420.37,-134.58 420.37,-147.77 426.75,-157.5 432.56,-166.36 441.21,-173.01 450.64,-177.98"/>
<polygon fill="black" stroke="black" points="449.15,-181.15 459.71,-182.12 452.06,-174.79 449.15,-181.15"/>
<text text-anchor="middle" x="441.62" y="-144.2" font-family="Times New Roman,serif" font-size="14.00">[350]</text>
</g>
<!-- SanPedroPinula&#45;&gt;Sanarate -->
<g id="edge70" class="edge">
<title>SanPedroPinula&#45;&gt;Sanarate</title>
<path fill="none" stroke="black" d="M59,-121.64C32.27,-135.62 0,-159.37 0,-192.5 0,-633.25 0,-633.25 0,-633.25 0,-665.54 22.64,-670.56 52,-684 113.66,-712.24 310.04,-717.82 406.07,-718.84"/>
<polygon fill="black" stroke="black" points="406,-722.34 416.04,-718.93 406.07,-715.34 406,-722.34"/>
<text text-anchor="middle" x="14.62" y="-407.45" font-family="Times New Roman,serif" font-size="14.00">[150]</text>
</g>
<!-- SanPedroPinula&#45;&gt;Chiquimula -->
<g id="edge68" class="edge">
<title>SanPedroPinula&#45;&gt;Chiquimula</title>
<path fill="none" stroke="black" d="M145.95,-118.02C195.42,-128.64 272.04,-144.77 338.75,-157.5 384.51,-166.23 396.54,-165.33 442,-175.5 445.82,-176.35 449.75,-177.29 453.7,-178.28"/>
<polygon fill="black" stroke="black" points="452.76,-181.65 463.32,-180.76 454.51,-174.87 452.76,-181.65"/>
<text text-anchor="middle" x="353.62" y="-144.2" font-family="Times New Roman,serif" font-size="14.00">[120]</text>
</g>
<!-- ElEstor -->
<g id="node29" class="node">
<title>ElEstor</title>
<ellipse fill="none" stroke="black" cx="94" cy="-18" rx="38.09" ry="18"/>
<text text-anchor="middle" x="94" y="-12.57" font-family="Times New Roman,serif" font-size="14.00">ElEstor</text>
</g>
<!-- SanPedroPinula&#45;&gt;ElEstor -->
<g id="edge69" class="edge">
<title>SanPedroPinula&#45;&gt;ElEstor</title>
<path fill="none" stroke="black" d="M78.13,-87.91C71,-78.28 64.94,-65.8 68.75,-54 69.82,-50.68 71.34,-47.42 73.1,-44.29"/>
<polygon fill="black" stroke="black" points="75.88,-46.43 78.49,-36.17 70.05,-42.56 75.88,-46.43"/>
<text text-anchor="middle" x="83.62" y="-56.45" font-family="Times New Roman,serif" font-size="14.00">[170]</text>
</g>
<!-- Morales&#45;&gt;Sanarate -->
<g id="edge66" class="edge">
<title>Morales&#45;&gt;Sanarate</title>
<path fill="none" stroke="black" d="M640.49,-120.19C649.05,-125.82 657.95,-133.09 664,-141.75 677.4,-160.93 678,-169.1 678,-192.5 678,-370 678,-370 678,-370 678,-431.57 693.48,-449.77 675,-508.5 651.94,-581.8 632.26,-597.91 576,-650.25 553.16,-671.5 522.66,-689.26 498.67,-701.4"/>
<polygon fill="black" stroke="black" points="497.27,-698.19 489.85,-705.75 500.36,-704.47 497.27,-698.19"/>
<text text-anchor="middle" x="696.62" y="-407.45" font-family="Times New Roman,serif" font-size="14.00">[280]</text>
</g>
<!-- Morales&#45;&gt;Chiquimula -->
<g id="edge67" class="edge">
<title>Morales&#45;&gt;Chiquimula</title>
<path fill="none" stroke="black" d="M576.58,-112.05C542.91,-117.58 497.68,-127.44 486.75,-141.75 481.43,-148.72 482.36,-157.43 485.66,-165.66"/>
<polygon fill="black" stroke="black" points="482.43,-167.03 490.13,-174.32 488.65,-163.82 482.43,-167.03"/>
<text text-anchor="middle" x="501.62" y="-144.2" font-family="Times New Roman,serif" font-size="14.00">[200]</text>
</g>
<!-- SanPedroCarchá&#45;&gt;Chiquimula -->
<g id="edge60" class="edge">
<title>SanPedroCarchá&#45;&gt;Chiquimula</title>
<path fill="none" stroke="black" d="M525.86,-263.27C530.82,-253.38 534.82,-240.69 531,-229.5 529.93,-226.37 528.46,-223.3 526.74,-220.36"/>
<polygon fill="black" stroke="black" points="529.67,-218.44 521.1,-212.2 523.92,-222.42 529.67,-218.44"/>
<text text-anchor="middle" x="547.62" y="-231.95" font-family="Times New Roman,serif" font-size="14.00">[200]</text>
</g>
<!-- SanPedroCarchá&#45;&gt;SanMarcos -->
<g id="edge59" class="edge">
<title>SanPedroCarchá&#45;&gt;SanMarcos</title>
<path fill="none" stroke="black" d="M543.23,-297.94C549.95,-303.14 556.26,-309.6 560,-317.25 563.84,-325.1 562.1,-333.74 558.25,-341.62"/>
<polygon fill="black" stroke="black" points="555.27,-339.78 553.04,-350.14 561.24,-343.44 555.27,-339.78"/>
<text text-anchor="middle" x="577.62" y="-319.7" font-family="Times New Roman,serif" font-size="14.00">[170]</text>
</g>
<!-- SanPedroCarchá&#45;&gt;SanJuanComalapa -->
<g id="edge61" class="edge">
<title>SanPedroCarchá&#45;&gt;SanJuanComalapa</title>
<path fill="none" stroke="black" d="M565.77,-294.48C577.42,-299.64 588.55,-306.94 596,-317.25 637.24,-374.31 600.17,-407.6 579,-474.75 574.62,-488.63 568.66,-503.64 563.36,-516.09"/>
<polygon fill="black" stroke="black" points="560.32,-514.31 559.54,-524.88 566.73,-517.11 560.32,-514.31"/>
<text text-anchor="middle" x="621.62" y="-407.45" font-family="Times New Roman,serif" font-size="14.00">[220]</text>
</g>
<!-- SantaEulalia -->
<g id="node28" class="node">
<title>SantaEulalia</title>
<ellipse fill="none" stroke="black" cx="378" cy="-193.5" rx="55.06" ry="18"/>
<text text-anchor="middle" x="378" y="-188.07" font-family="Times New Roman,serif" font-size="14.00">SantaEulalia</text>
</g>
<!-- SanPedroCarchá&#45;&gt;SantaEulalia -->
<g id="edge58" class="edge">
<title>SanPedroCarchá&#45;&gt;SantaEulalia</title>
<path fill="none" stroke="black" d="M449.15,-272.99C429.58,-267.93 409.46,-259.44 394.75,-245.25 388.58,-239.29 384.68,-231.02 382.22,-222.88"/>
<polygon fill="black" stroke="black" points="385.64,-222.14 379.95,-213.2 378.82,-223.73 385.64,-222.14"/>
<text text-anchor="middle" x="409.62" y="-231.95" font-family="Times New Roman,serif" font-size="14.00">[200]</text>
</g>
<!-- Petén&#45;&gt;Sanarate -->
<g id="edge30" class="edge">
<title>Petén&#45;&gt;Sanarate</title>
<path fill="none" stroke="black" d="M422.26,-649.93C426.75,-659.94 432.78,-672.85 438.75,-684 440.21,-686.73 441.79,-689.54 443.4,-692.32"/>
<polygon fill="black" stroke="black" points="440.34,-694.03 448.47,-700.82 446.35,-690.44 440.34,-694.03"/>
<text text-anchor="middle" x="453.62" y="-670.7" font-family="Times New Roman,serif" font-size="14.00">[300]</text>
</g>
<!-- Jocotán&#45;&gt;Sanarate -->
<g id="edge63" class="edge">
<title>Jocotán&#45;&gt;Sanarate</title>
<path fill="none" stroke="black" d="M191.23,-293.54C178.29,-299.36 163.5,-307.34 152,-317.25 138.05,-329.26 134.77,-333.88 128,-351 78.74,-475.57 76.17,-549.1 164,-650.25 184.06,-673.35 195.05,-674.09 224,-684 284.59,-704.74 358.07,-713.19 406.77,-716.64"/>
<polygon fill="black" stroke="black" points="406.27,-720.11 416.48,-717.27 406.73,-713.13 406.27,-720.11"/>
<text text-anchor="middle" x="109.62" y="-495.2" font-family="Times New Roman,serif" font-size="14.00">[220]</text>
</g>
<!-- Jocotán&#45;&gt;SantaCruzVerapaz -->
<g id="edge65" class="edge">
<title>Jocotán&#45;&gt;SantaCruzVerapaz</title>
<path fill="none" stroke="black" d="M224.24,-299.66C234.73,-355.98 267.81,-533.57 280.74,-603.02"/>
<polygon fill="black" stroke="black" points="277.23,-603.27 282.5,-612.46 284.11,-601.98 277.23,-603.27"/>
<text text-anchor="middle" x="271.62" y="-451.32" font-family="Times New Roman,serif" font-size="14.00">[200]</text>
</g>
<!-- Jocotán&#45;&gt;SanMarcos -->
<g id="edge64" class="edge">
<title>Jocotán&#45;&gt;SanMarcos</title>
<path fill="none" stroke="black" d="M254.3,-291.29C309.45,-306.25 420.16,-336.3 485.48,-354.02"/>
<polygon fill="black" stroke="black" points="484.31,-357.33 494.87,-356.57 486.14,-350.57 484.31,-357.33"/>
<text text-anchor="middle" x="422.62" y="-319.7" font-family="Times New Roman,serif" font-size="14.00">[220]</text>
</g>
<!-- Chimaltenango&#45;&gt;Suchitepequez -->
<g id="edge38" class="edge">
<title>Chimaltenango&#45;&gt;Suchitepequez</title>
<path fill="none" stroke="black" d="M335.21,-526.6C328.42,-516.74 322.86,-504.05 327.75,-492.75 329.35,-489.05 331.55,-485.57 334.09,-482.34"/>
<polygon fill="black" stroke="black" points="336.64,-484.73 340.9,-475.03 331.52,-479.96 336.64,-484.73"/>
<text text-anchor="middle" x="342.62" y="-495.2" font-family="Times New Roman,serif" font-size="14.00">[200]</text>
</g>
<!-- Chimaltenango&#45;&gt;Sanarate -->
<g id="edge40" class="edge">
<title>Chimaltenango&#45;&gt;Sanarate</title>
<path fill="none" stroke="black" d="M400.3,-556.48C410.14,-558.54 420.38,-560.64 430,-562.5 452.81,-566.92 518.05,-562.71 533,-580.5 563.21,-616.45 519.4,-666.95 487.72,-695.99"/>
<polygon fill="black" stroke="black" points="485.46,-693.32 480.31,-702.58 490.11,-698.55 485.46,-693.32"/>
<text text-anchor="middle" x="557.62" y="-626.83" font-family="Times New Roman,serif" font-size="14.00">[170]</text>
</g>
<!-- Chimaltenango&#45;&gt;SantaCruzVerapaz -->
<g id="edge39" class="edge">
<title>Chimaltenango&#45;&gt;SantaCruzVerapaz</title>
<path fill="none" stroke="black" d="M342.96,-562.83C338.37,-573.08 331.79,-586 324,-596.25 321.27,-599.84 318.14,-603.37 314.88,-606.73"/>
<polygon fill="black" stroke="black" points="312.53,-604.14 307.75,-613.6 317.38,-609.19 312.53,-604.14"/>
<text text-anchor="middle" x="348.62" y="-582.95" font-family="Times New Roman,serif" font-size="14.00">[220]</text>
</g>
<!-- SantaCruzVerapaz&#45;&gt;Sanarate -->
<g id="edge54" class="edge">
<title>SantaCruzVerapaz&#45;&gt;Sanarate</title>
<path fill="none" stroke="black" d="M304.03,-650.25C316.39,-661.15 333.59,-674.9 350.75,-684 369.96,-694.18 392.66,-702.05 412.37,-707.72"/>
<polygon fill="black" stroke="black" points="411.25,-711.04 421.82,-710.32 413.11,-704.29 411.25,-711.04"/>
<text text-anchor="middle" x="365.62" y="-670.7" font-family="Times New Roman,serif" font-size="14.00">[200]</text>
</g>
<!-- SantaCruzVerapaz&#45;&gt;Jocotán -->
<g id="edge55" class="edge">
<title>SantaCruzVerapaz&#45;&gt;Jocotán</title>
<path fill="none" stroke="black" d="M260.37,-614.91C253.65,-609.63 246.92,-603.29 242,-596.25 209.44,-549.6 210.81,-530.91 201.75,-474.75 192.41,-416.85 204.77,-348.39 213.57,-310.7"/>
<polygon fill="black" stroke="black" points="216.95,-311.61 215.91,-301.07 210.14,-309.96 216.95,-311.61"/>
<text text-anchor="middle" x="216.62" y="-451.32" font-family="Times New Roman,serif" font-size="14.00">[200]</text>
</g>
<!-- SantaCruzVerapaz&#45;&gt;Chimaltenango -->
<g id="edge53" class="edge">
<title>SantaCruzVerapaz&#45;&gt;Chimaltenango</title>
<path fill="none" stroke="black" d="M283.86,-614.01C283.43,-603.55 284.49,-590.36 290.75,-580.5 294.28,-574.94 299.03,-570.15 304.32,-566.06"/>
<polygon fill="black" stroke="black" points="305.99,-569.15 312.34,-560.67 302.09,-563.34 305.99,-569.15"/>
<text text-anchor="middle" x="305.62" y="-582.95" font-family="Times New Roman,serif" font-size="14.00">[220]</text>
</g>
<!-- SantaCruzVerapaz&#45;&gt;SanJuanComalapa -->
<g id="edge52" class="edge">
<title>SantaCruzVerapaz&#45;&gt;SanJuanComalapa</title>
<path fill="none" stroke="black" d="M330.36,-616.9C375.97,-602.14 447.09,-579.12 496.2,-563.23"/>
<polygon fill="black" stroke="black" points="497.07,-566.63 505.5,-560.22 494.91,-559.97 497.07,-566.63"/>
<text text-anchor="middle" x="457.62" y="-582.95" font-family="Times New Roman,serif" font-size="14.00">[150]</text>
</g>
<!-- Huehuetenango&#45;&gt;Salamá -->
<g id="edge37" class="edge">
<title>Huehuetenango&#45;&gt;Salamá</title>
<path fill="none" stroke="black" d="M900.62,-386.94C911.55,-399.6 926.65,-417.11 938.89,-431.29"/>
<polygon fill="black" stroke="black" points="935.91,-433.19 945.09,-438.48 941.21,-428.62 935.91,-433.19"/>
<text text-anchor="middle" x="944.62" y="-407.45" font-family="Times New Roman,serif" font-size="14.00">[250]</text>
</g>
<!-- SanMarcos&#45;&gt;Salamá -->
<g id="edge75" class="edge">
<title>SanMarcos&#45;&gt;Salamá</title>
<path fill="none" stroke="black" d="M590.21,-370.4C636.88,-372.56 705.61,-380.24 760,-405 769.91,-409.51 768.93,-416.07 778.75,-420.75 820.96,-440.87 873.93,-449.42 911.69,-453.06"/>
<polygon fill="black" stroke="black" points="911.11,-456.52 921.38,-453.91 911.72,-449.55 911.11,-456.52"/>
<text text-anchor="middle" x="793.62" y="-407.45" font-family="Times New Roman,serif" font-size="14.00">[250]</text>
</g>
<!-- SanMarcos&#45;&gt;SanPedroCarchá -->
<g id="edge78" class="edge">
<title>SanMarcos&#45;&gt;SanPedroCarchá</title>
<path fill="none" stroke="black" d="M531.69,-350.61C530.04,-345.01 528.26,-338.76 526.75,-333 524.88,-325.85 523,-318.1 521.32,-310.85"/>
<polygon fill="black" stroke="black" points="524.75,-310.14 519.11,-301.17 517.92,-311.7 524.75,-310.14"/>
<text text-anchor="middle" x="541.62" y="-319.7" font-family="Times New Roman,serif" font-size="14.00">[170]</text>
</g>
<!-- SanMarcos&#45;&gt;Jocotán -->
<g id="edge76" class="edge">
<title>SanMarcos&#45;&gt;Jocotán</title>
<path fill="none" stroke="black" d="M513.13,-352.53C494.28,-341.03 466.93,-325.9 441,-317.25 384.64,-298.45 316.7,-289.61 271.37,-285.54"/>
<polygon fill="black" stroke="black" points="271.83,-282.07 261.58,-284.72 271.24,-289.05 271.83,-282.07"/>
<text text-anchor="middle" x="491.62" y="-319.7" font-family="Times New Roman,serif" font-size="14.00">[220]</text>
</g>
<!-- SanMarcos&#45;&gt;SanJuanComalapa -->
<g id="edge77" class="edge">
<title>SanMarcos&#45;&gt;SanJuanComalapa</title>
<path fill="none" stroke="black" d="M526.95,-387.1C516.04,-407.87 501.22,-443.96 509.75,-474.75 513.94,-489.89 522.45,-505.04 530.66,-517.25"/>
<polygon fill="black" stroke="black" points="527.59,-518.97 536.22,-525.12 533.31,-514.93 527.59,-518.97"/>
<text text-anchor="middle" x="524.62" y="-451.32" font-family="Times New Roman,serif" font-size="14.00">[220]</text>
</g>
<!-- SanJuanComalapa&#45;&gt;Salamá -->
<g id="edge51" class="edge">
<title>SanJuanComalapa&#45;&gt;Salamá</title>
<path fill="none" stroke="black" d="M607.44,-531.67C689.57,-514.45 840.35,-482.83 915.29,-467.12"/>
<polygon fill="black" stroke="black" points="915.66,-470.62 924.73,-465.14 914.22,-463.77 915.66,-470.62"/>
<text text-anchor="middle" x="807.62" y="-495.2" font-family="Times New Roman,serif" font-size="14.00">[200]</text>
</g>
<!-- SanJuanComalapa&#45;&gt;SanPedroCarchá -->
<g id="edge50" class="edge">
<title>SanJuanComalapa&#45;&gt;SanPedroCarchá</title>
<path fill="none" stroke="black" d="M530.62,-526.68C524.6,-521.21 518.22,-514.89 513,-508.5 455.36,-437.93 431.45,-420.78 407,-333 405.12,-326.26 402.88,-322.91 407,-317.25 414.92,-306.35 426.32,-298.78 438.76,-293.53"/>
<polygon fill="black" stroke="black" points="439.79,-296.88 447.99,-290.17 437.39,-290.31 439.79,-296.88"/>
<text text-anchor="middle" x="458.62" y="-407.45" font-family="Times New Roman,serif" font-size="14.00">[220]</text>
</g>
<!-- SanJuanComalapa&#45;&gt;SantaCruzVerapaz -->
<g id="edge48" class="edge">
<title>SanJuanComalapa&#45;&gt;SantaCruzVerapaz</title>
<path fill="none" stroke="black" d="M532.84,-562.3C519.49,-573.7 500.37,-588.11 481,-596.25 436.94,-614.76 422.03,-605.77 375,-614.25 368.75,-615.38 362.26,-616.57 355.76,-617.78"/>
<polygon fill="black" stroke="black" points="355.52,-614.27 346.34,-619.55 356.81,-621.15 355.52,-614.27"/>
<text text-anchor="middle" x="522.62" y="-582.95" font-family="Times New Roman,serif" font-size="14.00">[150]</text>
</g>
<!-- SanJuanComalapa&#45;&gt;SanMarcos -->
<g id="edge49" class="edge">
<title>SanJuanComalapa&#45;&gt;SanMarcos</title>
<path fill="none" stroke="black" d="M549.61,-526.23C547.2,-496.43 542.25,-435.05 539.32,-398.73"/>
<polygon fill="black" stroke="black" points="542.82,-398.65 538.53,-388.97 535.85,-399.22 542.82,-398.65"/>
<text text-anchor="middle" x="560.62" y="-451.32" font-family="Times New Roman,serif" font-size="14.00">[220]</text>
</g>
<!-- AltaVerapaz&#45;&gt;Cubulco -->
<g id="edge47" class="edge">
<title>AltaVerapaz&#45;&gt;Cubulco</title>
<path fill="none" stroke="black" d="M1007.54,-36.37C1008.67,-46.16 1009.63,-58.63 1009,-69.75 1008.88,-71.81 1008.73,-73.94 1008.54,-76.08"/>
<polygon fill="black" stroke="black" points="1005.08,-75.53 1007.54,-85.83 1012.05,-76.24 1005.08,-75.53"/>
<text text-anchor="middle" x="1024.62" y="-56.45" font-family="Times New Roman,serif" font-size="14.00">[230]</text>
</g>
<!-- SanJerónimo -->
<g id="node26" class="node">
<title>SanJerónimo</title>
<ellipse fill="none" stroke="black" cx="1556" cy="-895.5" rx="58.55" ry="18"/>
<text text-anchor="middle" x="1556" y="-890.08" font-family="Times New Roman,serif" font-size="14.00">SanJerónimo</text>
</g>
<!-- SantaLucíaCotzumalguapa -->
<g id="node27" class="node">
<title>SantaLucíaCotzumalguapa</title>
<ellipse fill="none" stroke="black" cx="1556" cy="-807.75" rx="109.95" ry="18"/>
<text text-anchor="middle" x="1556" y="-802.33" font-family="Times New Roman,serif" font-size="14.00">SantaLucíaCotzumalguapa</text>
</g>
<!-- SanJerónimo&#45;&gt;SantaLucíaCotzumalguapa -->
<g id="edge56" class="edge">
<title>SanJerónimo&#45;&gt;SantaLucíaCotzumalguapa</title>
<path fill="none" stroke="black" d="M1540.8,-877.89C1536.73,-872.42 1532.87,-866.06 1530.75,-859.5 1528.13,-851.39 1530.17,-842.95 1534.03,-835.35"/>
<polygon fill="black" stroke="black" points="1536.99,-837.21 1539.33,-826.87 1531.06,-833.49 1536.99,-837.21"/>
<text text-anchor="middle" x="1544.62" y="-846.2" font-family="Times New Roman,serif" font-size="14.00">[170]</text>
</g>
<!-- SantaLucíaCotzumalguapa&#45;&gt;SanJerónimo -->
<g id="edge57" class="edge">
<title>SantaLucíaCotzumalguapa&#45;&gt;SanJerónimo</title>
<path fill="none" stroke="black" d="M1558.54,-826.12C1559.67,-835.91 1560.63,-848.38 1560,-859.5 1559.88,-861.56 1559.73,-863.69 1559.54,-865.83"/>
<polygon fill="black" stroke="black" points="1556.08,-865.28 1558.54,-875.58 1563.05,-865.99 1556.08,-865.28"/>
<text text-anchor="middle" x="1574.62" y="-846.2" font-family="Times New Roman,serif" font-size="14.00">[170]</text>
</g>
<!-- SantaEulalia&#45;&gt;SanPedroCarchá -->
<g id="edge62" class="edge">
<title>SantaEulalia&#45;&gt;SanPedroCarchá</title>
<path fill="none" stroke="black" d="M402.73,-209.98C424.22,-223.43 455.59,-243.07 479.72,-258.17"/>
<polygon fill="black" stroke="black" points="477.61,-260.98 487.95,-263.32 481.33,-255.05 477.61,-260.98"/>
<text text-anchor="middle" x="473.62" y="-231.95" font-family="Times New Roman,serif" font-size="14.00">[200]</text>
</g>
<!-- ElEstor&#45;&gt;SanPedroPinula -->
<g id="edge71" class="edge">
<title>ElEstor&#45;&gt;SanPedroPinula</title>
<path fill="none" stroke="black" d="M96.39,-36.41C97.05,-42.02 97.67,-48.26 98,-54 98.41,-61.12 98.16,-68.8 97.63,-75.97"/>
<polygon fill="black" stroke="black" points="94.15,-75.59 96.68,-85.87 101.12,-76.25 94.15,-75.59"/>
<text text-anchor="middle" x="113.62" y="-56.45" font-family="Times New Roman,serif" font-size="14.00">[170]</text>
</g>
<!-- hola -->
<g id="node30" class="node">
<title>hola</title>
<ellipse fill="none" stroke="black" cx="1715" cy="-895.5" rx="27" ry="18"/>
<text text-anchor="middle" x="1715" y="-890.08" font-family="Times New Roman,serif" font-size="14.00">hola</text>
</g>
<!-- hola2 -->
<g id="node31" class="node">
<title>hola2</title>
<ellipse fill="none" stroke="black" cx="1715" cy="-807.75" rx="30.61" ry="18"/>
<text text-anchor="middle" x="1715" y="-802.33" font-family="Times New Roman,serif" font-size="14.00">hola2</text>
</g>
<!-- hola&#45;&gt;hola2 -->
<g id="edge81" class="edge">
<title>hola&#45;&gt;hola2</title>
<path fill="none" stroke="black" d="M1715,-877.15C1715,-865.76 1715,-850.59 1715,-837.43"/>
<polygon fill="black" stroke="black" points="1718.5,-837.59 1715,-827.59 1711.5,-837.59 1718.5,-837.59"/>
<text text-anchor="middle" x="1729.62" y="-846.2" font-family="Times New Roman,serif" font-size="14.00">[200]</text>
</g>
</g>
</svg>
